{"title":"Love Child S03E09 1080P WEB-DL AAC2 0 H 264","uid":15469227,"size":1799948933,"categoryP":"video","categoryS":"hd___tv_shows","magnet":"?xt=urn:btih:caf5ac3d81e65c3f5170159dfa4f4507c06402a2&amp;dn=Love+Child+S03E09+1080P+WEB-DL+AAC2+0+H+264&amp;tr=udp%3A%2F%2Ftracker.leechers-paradise.org%3A6969&amp;tr=udp%3A%2F%2Fzer0day.ch%3A1337&amp;tr=udp%3A%2F%2Fopen.demonii.com%3A1337&amp;tr=udp%3A%2F%2Ftracker.coppersurfer.tk%3A6969&amp;tr=udp%3A%2F%2Fexodus.desync.com%3A6969","seeders":2,"leechers":0,"uploader":"jmanwf","files":1,"time":1470129331,"description":"McNaughton (Jonathan LaPaglia) finally opens up to Joan (Jessica Marais) when he’s forced to confront his demons\r\n\r\n\r\n\r\nVideo\r\nID                                       : 2\r\nFormat                                   : AVC\r\nFormat/Info                              : Advanced Video Codec\r\nFormat profile                           :   \r\nFormat settings, CABAC                   : Yes\r\nFormat settings, ReFrames                : 4 frames\r\nCodec ID                                 : avc1\r\nCodec ID/Info                            : Advanced Video Coding\r\nDuration                                 : 45mn 32s\r\nBit rate                                 : 5 139 Kbps\r\nWidth                                    : 1 912 pixels\r\nHeight                                   : 1 072 pixels\r\nDisplay aspect ratio                     : 16:9\r\nFrame rate mode                          : Variable\r\nFrame rate                               : 25.000 fps\r\nMinimum frame rate                       : 25.000 fps\r\nMaximum frame rate                       : 100.000 fps\r\nColor space                              : YUV\r\nChroma subsampling                       : 4:2:0\r\nBit depth                                : 8 bits\r\nScan type                                : Progressive\r\nBits/(Pixel*Frame)                       : 0.100\r\nStream size                              : 1.63 GiB (98%)\r\nLanguage                                 : English\r\nEncoded date                             : UTC 2016-08-02 06:31:43\r\nTagged date                              : UTC 2016-08-02 06:33:18\r\nColor range                              : Limited\r\nColor primaries                          : BT.709\r\nTransfer characteristics                 : BT.709\r\nMatrix coefficients                      : BT.709\r\n\r\nAudio\r\nID                                       : 1\r\nFormat                                   : AAC\r\nFormat/Info                              : Advanced Audio Codec\r\nFormat profile                           : LC\r\nCodec ID                                 : 40\r\nDuration                                 : 45mn 32s\r\nDuration_LastFrame                       : -2ms\r\nBit rate mode                            : Variable\r\nBit rate                                 : 127 Kbps\r\nMaximum bit rate                         : 200 Kbps\r\nChannel(s)                               : 2 channels\r\nChannel positions                        : Front: L R\r\nSampling rate                            : 48.0 KHz\r\nFrame rate                               : 46.875 fps (1024 spf)\r\nCompression mode                         : Lossy\r\nStream size                              : 41.3 MiB (2%)\r\nLanguage                                 : English\r\nDefault                                  : Yes\r\nAlternate group                          : 1\r\nEncoded date                             : UTC 2016-08-02 06:28:47\r\nTagged date                              : UTC 2016-08-02 06:31:43","torrent":{"xt":"urn:btih:caf5ac3d81e65c3f5170159dfa4f4507c06402a2","amp;dn":"Love+Child+S03E09+1080P+WEB-DL+AAC2+0+H+264","amp;tr":["udp%3A%2F%2Ftracker.leechers-paradise.org%3A6969","udp%3A%2F%2Fzer0day.ch%3A1337","udp%3A%2F%2Fopen.demonii.com%3A1337","udp%3A%2F%2Ftracker.coppersurfer.tk%3A6969","udp%3A%2F%2Fexodus.desync.com%3A6969"],"infoHash":"caf5ac3d81e65c3f5170159dfa4f4507c06402a2","infoHashBuffer":{"type":"Buffer","data":[202,245,172,61,129,230,92,63,81,112,21,157,250,79,69,7,192,100,2,162]},"announce":[],"urlList":[]}}